# xmcd
#
# Track frame offsets: 
#        150
#        12768
#        25539
#        42933
#        58642
#        75682
#        87217
#        99831
#        112014
#        124317
#        136378
#        150844
#        162986
#        176173
#        190598
#        203969
#        217354
#        232429
#        244995
#        258217
#        272533
#        286880
#        297696
#        308342
#        322722
#
# Disc length: 4539 seconds
#
# Revision: 0
# Processed by: cddbd v1.5.2PL0 Copyright (c) Steve Scherf et al.
# Submitted via: ExactAudioCopyFreeDBPlugin 1.0
#
DISCID=5d11b919
DTITLE=Big Joe Williams - The essential Big Joe Williams CD1
DYEAR=2012
DGENRE=Blues
TTITLE0=Baby Please Don't Go
TTITLE1=Crawlin' King Snake
TTITLE2=Long Tall Woman, Skinny Mama Too
TTITLE3=Highway 49
TTITLE4=That Thing's In Town
TTITLE5=King Biscuit Stomp
TTITLE6=Sloppy Drunk Blues
TTITLE7=Peach Orchard Mama
TTITLE8=Jump, Baby, Jump!
TTITLE9=Delta Blues
TTITLE10=Stack Of Dollars
TTITLE11=Throw A Boogie Woogie
TTITLE12=Drop Down Blues
TTITLE13=Somebody's Been Worryin'
TTITLE14=Don't You Leave Me Here
TTITLE15=Banta Rooster Blues
TTITLE16=Blues Left Texas
TTITLE17=I'm Getting Wild About Her
TTITLE18=Walk On, Little Girl
TTITLE19=Mellow Peaches
TTITLE20=P Vine Blues
TTITLE21=No.13 Highway
TTITLE22=I Got A Bad Mind
TTITLE23=Arkansas Woman
TTITLE24=I Done Stop Hollering
EXTD=
EXTT0=
EXTT1=
EXTT2=
EXTT3=
EXTT4=
EXTT5=
EXTT6=
EXTT7=
EXTT8=
EXTT9=
EXTT10=
EXTT11=
EXTT12=
EXTT13=
EXTT14=
EXTT15=
EXTT16=
EXTT17=
EXTT18=
EXTT19=
EXTT20=
EXTT21=
EXTT22=
EXTT23=
EXTT24=
PLAYORDER=
